<?xml version="1.0" encoding="UTF-8"?>
<svg width="143px" height="34px" viewBox="0 0 143 34" version="1.1" xmlns="http://www.w3.org/2000/svg" xmlns:xlink="http://www.w3.org/1999/xlink">
    <title>Components/Logo1</title>
    <g id="Symbols" stroke="none" stroke-width="1" fill="none" fill-rule="evenodd">
        <g id="Components/Header" transform="translate(-150.000000, -24.000000)">
            <g id="Components/Logo1" transform="translate(150.000000, 24.000000)">
                <path d="M8.02259887e-05,17.7630951 C8.02259887e-05,26.2875585 6.88788249,33.197839 15.3846169,33.197839 L15.3846169,33.197839 L15.3846169,17.7630951 L8.02259887e-05,17.7630951 Z" id="Fill-15" fill="#49AAEA"></path>
                <path d="M17.7053141,33.1977585 C26.2020486,33.1977585 33.0898508,26.287478 33.0898508,17.7630146 L33.0898508,17.7630146 L17.7053141,17.7630146 L17.7053141,33.1977585 Z" id="Fill-18" fill="#FF4C50"></path>
                <path d="M15.3845367,15.4347439 C15.3845367,6.91028049 8.49673446,-4.28925188e-14 1.14007987e-14,-4.28925188e-14 L1.14007987e-14,-4.28925188e-14 L1.14007987e-14,15.4347439 L15.3845367,15.4347439 Z" id="Fill-20" fill="#03ACB8"></path>
                <path d="M33.0897706,15.4347439 L17.7052339,15.4347439 L17.7052339,7.71757317 C17.7052339,3.45534146 21.1493356,-4.28925188e-14 25.3977028,-4.28925188e-14 L25.3977028,-4.28925188e-14 C29.6456689,-4.28925188e-14 33.0897706,3.45534146 33.0897706,7.71757317 L33.0897706,15.4347439 Z" id="Fill-23" fill="#FFCC1D"></path>
                <path d="M139.204927,25.3548659 C137.039627,25.3548659 135.50691,24.4030976 135.50691,21.5715366 L135.50691,14.7856098 L135.020339,14.7856098 C134.314751,14.7856098 133.755175,14.2242073 133.755175,13.5163171 C133.755175,12.8084268 134.314751,12.2470244 135.020339,12.2470244 L135.50691,12.2470244 L135.50691,10.0501098 C135.50691,9.24482927 136.163559,8.58563415 136.99109,8.58563415 C137.793751,8.58563415 138.450802,9.24482927 138.450802,10.0501098 L138.450802,12.2470244 L140.762113,12.2470244 C141.467701,12.2470244 142.051345,12.8084268 142.051345,13.5163171 C142.051345,14.2242073 141.467701,14.7856098 140.762113,14.7856098 L138.450802,14.7856098 L138.450802,21.1075244 C138.450802,22.254878 139.034446,22.7184878 140.032056,22.7184878 C140.372616,22.7184878 140.664638,22.6452439 140.762113,22.6452439 C141.418763,22.6452439 142.002808,23.1825 142.002808,23.8658415 C142.002808,24.4030976 141.63778,24.8421585 141.224215,25.0131951 C140.591633,25.2329268 139.98352,25.3548659 139.204927,25.3548659 L139.204927,25.3548659 Z M127.35635,25.3794146 C130.032689,25.3794146 132.124983,24.036878 132.124983,21.3272561 L132.124983,21.278561 C132.124983,18.9597073 130.00822,18.1053293 128.134944,17.519378 L127.534452,17.3258049 C126.277712,16.9157195 125.239588,16.5124756 125.239588,15.6886829 L125.239588,15.6399878 C125.239588,14.9075488 125.896638,14.3706951 127.039859,14.3706951 C127.940395,14.3706951 129.01061,14.7123659 130.056757,15.249622 C130.251706,15.3470122 130.397316,15.3957073 130.640802,15.3957073 C131.321921,15.3957073 131.857429,14.8834024 131.857429,14.1996585 C131.857429,13.6873537 131.565407,13.2965854 131.151842,13.0768537 C129.910746,12.418061 128.475503,12.0272927 127.112864,12.0272927 C124.558469,12.0272927 122.53878,13.5163171 122.53878,15.9571098 L122.53878,16.0062073 C122.53878,18.4715488 124.655542,19.2526829 126.553288,19.7895366 L127.146158,19.9702317 C128.400893,20.3561707 129.424175,20.7284268 129.424175,21.5956829 L129.424175,21.6447805 C129.424175,22.4991585 128.69452,23.0360122 127.429356,23.0360122 C126.261266,23.0360122 124.972034,22.6210976 123.731339,21.7912683 C123.560859,21.6934756 123.341842,21.6202317 123.098757,21.6202317 C122.417237,21.6202317 121.906599,22.1570854 121.906599,22.8162805 C121.906599,23.304439 122.149684,23.6706585 122.466175,23.8412927 C123.949955,24.8667073 125.726158,25.3794146 127.35635,25.3794146 L127.35635,25.3794146 Z M118.767757,23.7193537 C118.986774,23.499622 119.157254,23.1825 119.157254,22.8162805 C119.157254,22.132939 118.646215,21.6202317 117.989164,21.6202317 C117.648605,21.6202317 117.454056,21.7180244 117.23504,21.8886585 C116.40791,22.5724024 115.434768,23.0114634 114.193672,23.0114634 C112.295927,23.0114634 110.812147,21.8399634 110.495655,19.7408415 L118.54874,19.7408415 C119.303266,19.7408415 119.935847,19.1548902 119.935847,18.325061 C119.935847,15.3470122 117.916158,11.9785976 113.829045,11.9785976 C110.155096,11.9785976 107.551763,15.0053415 107.551763,18.6912805 L107.551763,18.7399756 C107.551763,22.7184878 110.42265,25.4281098 114.145136,25.4281098 C116.140356,25.4281098 117.600068,24.7689146 118.767757,23.7193537 L118.767757,23.7193537 Z M110.471186,17.7878049 C110.739141,15.7864756 112.004305,14.3952439 113.804576,14.3952439 C115.750859,14.3952439 116.870011,15.8842683 117.06496,17.7878049 L110.471186,17.7878049 Z M104.583401,13.589561 C104.583401,12.7597317 103.902282,12.1005366 103.099621,12.1005366 C102.27209,12.1005366 101.615441,12.7597317 101.615441,13.589561 L101.615441,19.5211098 C101.615441,21.522439 100.423282,22.6943415 98.7200847,22.6943415 C96.9683503,22.6943415 95.9707401,21.5715366 95.9707401,19.5698049 L95.9707401,13.589561 C95.9707401,12.7597317 95.3136893,12.1005366 94.4865593,12.1005366 C93.6838983,12.1005366 93.0268475,12.7597317 93.0268475,13.589561 L93.0268475,20.4487317 C93.0268475,23.4509268 94.7055763,25.403561 97.6009322,25.403561 C99.5957514,25.403561 100.78791,24.354 101.615441,23.1338049 L101.615441,23.7925976 C101.615441,24.6224268 102.296559,25.2570732 103.099621,25.2570732 C103.926751,25.2570732 104.583401,24.5982805 104.583401,23.7925976 L104.583401,13.589561 Z M82.857,14.5417317 C84.8277514,14.5417317 86.5794859,16.1768415 86.5794859,18.6667317 L86.5794859,18.7154268 C86.5794859,21.1807683 84.8277514,22.8408293 82.857,22.8408293 C80.8617797,22.8408293 79.1589831,21.2053171 79.1589831,18.7154268 L79.1589831,18.6667317 C79.1589831,16.1035976 80.8377119,14.5417317 82.857,14.5417317 L82.857,14.5417317 Z M89.4748418,13.589561 C89.4748418,12.7597317 88.817791,12.1005366 87.990661,12.1005366 C87.1875989,12.1005366 86.5309492,12.7597317 86.5309492,13.5650122 L86.5309492,14.2487561 L86.4671695,14.1658537 C85.5449718,12.9810732 84.2200395,11.9785976 82.1514124,11.9785976 C79.0859774,11.9785976 76.1906215,14.3952439 76.1906215,18.6667317 L76.1906215,18.7154268 C76.1906215,22.9873171 79.1345141,25.403561 82.1514124,25.403561 C84.2437062,25.403561 85.5818757,24.3298537 86.5309492,22.9873171 L86.5309492,27.6982683 C86.5309492,28.5280976 87.1875989,29.1627439 88.0147288,29.1627439 C88.817791,29.1627439 89.4748418,28.5280976 89.4748418,27.6982683 L89.4748418,13.589561 Z M72.6626836,23.7193537 C72.8817006,23.499622 73.0521808,23.1825 73.0521808,22.8162805 C73.0521808,22.132939 72.5411412,21.6202317 71.8840904,21.6202317 C71.5435311,21.6202317 71.3489831,21.7180244 71.1299661,21.8886585 C70.3028362,22.5724024 69.3296949,23.0114634 68.0885989,23.0114634 C66.1908531,23.0114634 64.7070734,21.8399634 64.3905819,19.7408415 L72.4436667,19.7408415 C73.1981921,19.7408415 73.830774,19.1548902 73.830774,18.325061 C73.830774,15.3470122 71.8110847,11.9785976 67.7239718,11.9785976 C64.0500226,11.9785976 61.4466893,15.0053415 61.4466893,18.6912805 L61.4466893,18.7399756 C61.4466893,22.7184878 64.3175763,25.4281098 68.0400621,25.4281098 C70.0352825,25.4281098 71.4949944,24.7689146 72.6626836,23.7193537 L72.6626836,23.7193537 Z M64.366113,17.7878049 C64.6340678,15.7864756 65.8992316,14.3952439 67.6995028,14.3952439 C69.6457853,14.3952439 70.7649379,15.8842683 70.959887,17.7878049 L64.366113,17.7878049 Z M47.8708475,22.4746098 L47.8708475,17.7878049 L52.6150113,17.7878049 C54.9748588,17.7878049 56.1184802,18.6421829 56.1184802,20.0825122 L56.1184802,20.1312073 C56.1184802,21.6689268 54.8777853,22.4746098 52.8340282,22.4746098 L47.8708475,22.4746098 Z M47.8708475,15.249622 L47.8708475,10.7093049 L52.1769774,10.7093049 C54.0991921,10.7093049 55.1698079,11.5391341 55.1698079,12.8816707 L55.1698079,12.9303659 C55.1698079,14.4926341 53.8801751,15.249622 51.9579605,15.249622 L47.8708475,15.249622 Z M44.9265537,23.6219634 C44.9265537,24.475939 45.5836045,25.1351341 46.4352034,25.1351341 L52.8095593,25.1351341 C56.6050508,25.1351341 59.1109096,23.499622 59.1109096,20.4487317 L59.1109096,20.3996341 C59.1109096,18.0807805 57.7242034,16.9338293 55.7293842,16.2500854 L55.8088079,16.2078293 C57.0430847,15.5446098 58.1622373,14.4495732 58.1622373,12.4422073 L58.1622373,12.3935122 C58.1622373,11.2461585 57.7727401,10.318939 57.0186158,9.56195122 C56.0454746,8.58563415 54.5127571,8.04878049 52.5664746,8.04878049 L46.4352034,8.04878049 C45.5836045,8.04878049 44.9265537,8.70757317 44.9265537,9.56195122 L44.9265537,23.6219634 Z" id="Fill-1" fill="#343A40"></path>
            </g>
        </g>
    </g>
</svg>